<?xml version="1.0" encoding="UTF-8" standalone="no"?>
<svg
   version="1.1"
   id="designs"
   x="0px"
   y="0px"
   width="32px"
   height="32px"
   viewBox="0 0 32 32"
   style="enable-background:new 0 0 32 32;"
   xml:space="preserve"
   sodipodi:docname="favicon.svg"
   inkscape:version="1.2 (dc2aedaf03, 2022-05-15)"
   xmlns:inkscape="http://www.inkscape.org/namespaces/inkscape"
   xmlns:sodipodi="http://sodipodi.sourceforge.net/DTD/sodipodi-0.dtd"
   xmlns="http://www.w3.org/2000/svg"
   xmlns:svg="http://www.w3.org/2000/svg"><defs
   id="defs50" /><sodipodi:namedview
   id="namedview48"
   pagecolor="#ffffff"
   bordercolor="#000000"
   borderopacity="0.25"
   inkscape:showpageshadow="2"
   inkscape:pageopacity="0.0"
   inkscape:pagecheckerboard="0"
   inkscape:deskcolor="#d1d1d1"
   showgrid="false"
   inkscape:zoom="21.59375"
   inkscape:cx="10.257598"
   inkscape:cy="14.564399"
   inkscape:window-width="1600"
   inkscape:window-height="876"
   inkscape:window-x="0"
   inkscape:window-y="0"
   inkscape:window-maximized="1"
   inkscape:current-layer="designs" />
<style
   type="text/css"
   id="style43">
	.sketchy_een{fill:#111918;}
</style>

<path
   style="fill:#000000"
   d="m 10.826237,1.2079569 c -0.09914,0.044838 -0.194621,0.063783 -0.288924,0.097823 -0.11411,0.041189 -0.206889,0.1383473 -0.315799,0.1912 C 10.005258,1.6019272 9.7980386,1.7162374 9.5831929,1.8082348 9.5195182,1.8355004 9.5026522,1.8048552 9.4420903,1.8349136 9.0727667,2.0182184 8.5613347,2.1687548 8.2326423,2.3862799 8.1734434,2.4254571 7.8524531,2.8510452 7.8093343,2.9109675 7.7476483,2.9966926 7.1429021,3.2670445 6.9828798,3.3956357 6.7588485,3.5756635 6.5436394,3.7758845 6.3445584,3.9914674 6.1989983,4.149093 6.1212932,4.3699373 5.9951638,4.5428331 5.8693656,4.7152751 5.6952923,4.8105737 5.5315411,4.9430188 5.346129,5.0929836 5.2164976,5.3073116 5.1015144,5.512171 5.0949538,5.5238598 5.1277283,5.6776878 5.1149517,5.7256029 5.0989758,5.7855164 4.7048683,6.1460114 4.6311731,6.2191641 4.5487922,6.3009385 4.5057104,6.4115289 4.4228784,6.4948473 4.371664,6.5463624 4.2540744,6.6091204 4.2145865,6.6682613 4.0946406,6.8479039 4.0199151,6.9901328 3.8517519,7.1440366 3.6330661,7.3441788 3.4056656,7.5185208 3.2403079,7.7754401 3.0314494,8.0999472 3.2320736,8.4751327 3.0454533,8.7981356 3.004169,8.8695905 2.910837,8.900711 2.8640345,8.962656 2.7829052,9.0700341 2.7213612,9.1971853 2.6355839,9.3050366 2.5850807,9.3685363 2.4728793,9.4319276 2.4340092,9.4962365 2.3179516,9.6882488 2.1975076,9.9019702 2.0980505,10.105407 c -0.107009,0.218883 -0.172078,0.468786 -0.288924,0.684761 -0.123682,0.22861 -0.3333935,0.449508 -0.4098679,0.702548 -0.086427,0.285971 0.032803,0.84958 -0.00672,1.196108 -0.060147,0.527381 -0.3816392,0.981267 -0.45018404,1.502917 -0.0510368,0.388409 -0.0268774,0.790709 -0.0268774,1.18277 0,0.797255 0.0261742,1.599515 0,2.396357 -0.004184,0.127366 -0.0510013,0.241165 -0.0739107,0.364613 -0.0818941,0.441289 -0.10250572,1.005023 -0.0537533,1.454007 0.0688571,0.634137 0.26938214,1.247535 0.35610194,1.878496 0.037501,0.272851 -0.045567,0.564553 0,0.835943 0.050055,0.29812 0.2116613,0.753348 0.349396,1.031589 0.149622,0.302256 0.4801948,0.49682 0.7189506,0.720333 0.343942,0.321984 0.626043,0.687246 1.054908,0.915979 0.2575488,0.137363 0.5551299,0.211092 0.8096763,0.350514 0.1075005,0.05888 0.2799329,0.1684 0.3169716,0.300971 0.014559,0.05211 -0.00574,0.116905 0.026874,0.160074 0.1795111,0.237594 0.5657357,0.320555 0.8197387,0.449094 0.1366281,0.06914 0.2712201,0.196455 0.4165866,0.244559 0.019882,0.135141 0.030296,0.272017 0.059647,0.405422 0.056915,0.25868 0.9199868,0.559981 1.1624147,0.684761 0.030209,0.01555 0.2728964,0.112461 0.2754867,0.146733 3.11e-5,4.11e-4 -2.471e-4,0.173096 0,0.173416 0.237628,0.307056 0.6684518,0.53709 1.0039458,0.714171 0.5288766,0.279153 1.3700382,0.618949 1.9511239,0.719677 0.277319,0.04807 0.564291,0.06002 0.839671,0.120819 0.28102,0.06204 0.632438,0.09513 0.894125,0.220506 0.280324,0.134302 -0.142981,-0.03425 0.05395,0.106918 0.05099,0.03655 0.468757,-6.7e-4 0.47706,0 0.296027,0.02389 0.213941,0.04472 0.450183,0.07559 0.463513,0.06057 0.403502,0.04176 0.892301,0.06484 0.004,1.91e-4 0.511842,-0.01372 0.569857,0.02027 0.01151,0.0067 0,0.02668 0,0.04002 0.0112,0.02223 0.01203,0.05426 0.0336,0.0667 0.0334,0.01927 0.450339,0.161391 0.477059,0.16897 0.347245,0.09848 0.721465,0.145091 1.075924,0.21362 0.06663,0.01288 0.267604,-0.0058 0.316968,0.02683 0.05956,0.03941 -0.157002,0.044 0.06719,0.09338 0.617627,0.136018 1.43703,0.08428 2.070398,0.100064 0.05943,0.0015 0.413098,-0.0032 0.442096,0.0049 0.0112,0.0252 0.0224,0.0504 0.0336,0.07559 0,0.0015 -0.0014,0.004 0,0.0044 0.04891,0.01618 0.103109,0.0029 0.15454,0 0.13192,-0.0075 0.266718,3.19e-4 0.395229,-0.0304 0.17088,-0.04085 0.328406,-0.12518 0.49455,-0.182319 0.405422,-0.139429 0.817947,-0.268459 1.227114,-0.397199 0.121893,-0.03835 0.244153,-0.07565 0.367275,-0.10985 0.0043,-0.0012 0.009,0 0.01344,0 0.04031,0 0.08259,0.01241 0.120944,0 0.270402,-0.08748 0.468133,-0.322395 0.701079,-0.485203 0.415476,-0.290382 0.843131,-0.48808 1.254559,-0.769925 0.154915,-0.106122 0.04429,-0.158364 0.194431,-0.25284 0.48173,-0.303126 1.0146,-0.510422 1.487659,-0.831636 0.527011,-0.357847 0.128476,-0.217933 0.331322,-0.479697 0.08883,-0.114627 0.197185,-0.21314 0.304122,-0.311089 0.24579,-0.225133 0.534824,-0.355969 0.779927,-0.572142 0.222471,-0.196211 0.465496,-0.5708 0.628579,-0.768607 0.158404,-0.192131 0.3124,-0.388332 0.481102,-0.571488 0.216838,-0.235417 0.449898,-0.432276 0.621433,-0.713674 0.06092,-0.09993 -0.03443,-0.316808 0.0067,-0.411332 0.09395,-0.215838 0.365676,-0.352541 0.482612,-0.561035 0.143747,-0.256301 0.07888,-0.523086 0.225477,-0.785615 0.175551,-0.314377 0.431406,-0.522307 0.55973,-0.862947 0.08734,-0.231843 0.03212,-0.352506 0.06247,-0.572283 0.05091,-0.368752 0.218225,-0.70069 0.275913,-1.063074 0.05438,-0.341571 -0.04354,-0.643617 0,-1.041917 0.04583,-0.419255 0.260179,-0.78676 0.316554,-1.204995 0.02537,-0.188204 -0.02897,-0.386785 0,-0.574566 0.04456,-0.288803 0.209095,-0.539082 0.238897,-0.834931 0.02784,-0.276356 0.0067,-0.582315 0.0067,-0.854942 0,-0.46695 0,-0.933901 0,-1.400851 0,-0.218516 -0.0227,-0.467723 0,-0.689321 0.05612,-0.54785 0.08065,-1.061943 0.08065,-1.616733 0,-0.133607 0.02242,-0.300322 0,-0.429988 -0.06565,-0.379765 -0.16573,-0.715579 -0.437087,-0.98494 -0.167055,-0.165826 -0.240177,-0.326712 -0.228451,-0.280129 0.0055,0.02167 0.0067,-0.04435 0.0067,-0.0667 0,-0.1476293 0.01942,-0.2514703 -0.07391,-0.3823994 -0.11733,-0.1646067 -0.269443,-0.3463006 -0.39643,-0.5069009 -0.05383,-0.068077 -0.233734,-0.256 -0.181418,-0.1867531 0.07052,0.093344 0.07041,-0.2310306 0.05375,-0.3468267 C 29.346228,8.4950642 29.253897,8.390888 29.211989,8.3271018 29.053219,8.0854452 29.083012,8.1046815 28.88275,7.8913451 28.795283,7.7981679 28.649793,7.7214154 28.580024,7.6198409 28.520448,7.5331048 28.599672,7.3701759 28.519401,7.2547118 28.436611,7.1356236 28.315986,7.0472603 28.20481,6.9541157 28.131403,6.8926152 28.05265,6.8377122 27.974369,6.7825495 27.905904,6.7343041 27.83999,6.6807962 27.764743,6.6440126 c -0.02411,-0.011789 0,0.10737 0,0.080527 0,-0.2333854 0.06381,-0.5699938 -0.09036,-0.7647685 C 27.285593,5.4685846 26.719008,5.1442562 26.188981,4.8432759 25.75151,4.594854 25.389148,4.2761949 24.963914,4.0230213 24.655261,3.8392573 24.330656,3.7343532 23.997988,3.5998489 23.459967,3.0738228 22.774416,2.9183941 22.102507,2.6419662 21.954384,2.5772365 21.806261,2.5125069 21.658138,2.4477772 21.599121,2.4143018 21.542669,2.375834 21.481088,2.347351 c -0.0056,-0.00259 0,0.012357 0,0.018536 -0.009,0 -0.01901,0.00429 -0.02688,0 C 21.272346,2.2667723 21.150752,2.0319788 20.913819,1.9012513 20.671697,1.7676601 20.41612,1.6683371 20.167647,1.5497934 19.87066,1.4081044 19.895317,1.3510583 19.461757,1.1910233 19.030204,1.031729 18.582686,0.91936236 18.146018,0.77467976 17.996323,0.72508088 17.848226,0.67011328 17.703133,0.60833343 c -0.03429,-0.0145999 0.05045,-0.0508529 -0.0336,-0.0578051 -0.744604,-0.061592 -1.495364,-0.0151964 -2.240084,0.005777 -0.647417,0.0182334 -1.458376,-0.11038977 -2.134477,0.004334 -0.241172,0.0409232 -0.650388,0.40211832 -0.786143,0.41797158 -0.219512,0.0256343 -0.481883,0.0588374 -0.678636,0.12894867 -0.0986,0.035135 -0.222856,-0.021934 -0.322517,0.00445 -0.217012,0.057443 -0.451757,0.038091 -0.681443,0.09595 z"
   id="path320" /><path
   class="sketchy_een"
   d="m 5.5329519,6.2705062 c -0.00755,0.010034 -0.014019,0.018953 -0.021567,0.028987 -0.00108,0.00112 -0.00324,0.00335 -0.00432,0.00557 0.00862,-0.011149 0.017254,-0.022297 0.025881,-0.034561 z M 5.2396398,6.6640656 c 0.020488,-0.026758 0.039899,-0.053515 0.060388,-0.081388 0.024802,-0.032332 0.048526,-0.065779 0.073328,-0.099226 -0.044213,0.060205 -0.089504,0.1204092 -0.133716,0.180614 z M 23.211474,6.2181059 c -0.01079,-0.00892 -0.02156,-0.016723 -0.03234,-0.025643 0.01402,0.011149 0.02912,0.023412 0.04314,0.034561 -0.0033,-0.00223 -0.0065,-0.00557 -0.01079,-0.00892 z m 6.642655,9.0674741 c 0.0151,0.451535 -0.03451,0.909758 -0.09274,1.356834 -0.06255,0.48944 -0.126167,0.987801 -0.237238,1.467206 -0.436732,1.893099 -1.182952,3.705925 -2.196604,5.344827 -0.266354,0.429236 -0.567214,0.8306 -0.870232,1.233079 -0.259883,0.345618 -0.530549,0.709076 -0.836802,1.013443 -0.679363,0.676744 -1.43313,1.254262 -2.258071,1.730323 -0.427029,0.247508 -0.856212,0.479407 -1.309121,0.676745 -0.414087,0.178383 -0.836802,0.335585 -1.26383,0.479405 -0.902581,0.305483 -1.833201,0.443731 -2.772446,0.56414 -0.865918,0.108146 -1.736148,0.200683 -2.609615,0.192878 C 14.47142,29.33442 13.545115,29.221821 12.626357,29.038977 11.775538,28.868398 10.899916,28.710082 10.090072,28.384531 9.6102053,28.193884 9.1130846,27.995431 8.6741947,27.717821 8.3204948,27.492612 7.9775787,27.256253 7.6411324,27.003171 6.8970687,26.443492 6.1131059,25.897191 5.487661,25.192575 5.1792521,24.845841 4.8934885,24.477925 4.6044898,24.112237 4.2982376,23.727597 3.9768883,23.347417 3.7040649,22.933789 3.4398683,22.536885 3.182142,22.134406 2.9740198,21.70294 2.7540357,21.248061 2.5750291,20.76977 2.4024926,20.293708 2.0682032,19.38172 1.8514541,18.388346 1.8255736,17.412809 c -0.023724,-0.93763 0.026959,-1.877491 0.1283241,-2.808431 0.060388,-0.544071 0.1380292,-1.082567 0.2588047,-1.616604 0.1013652,-0.4415 0.2253759,-0.895265 0.3806587,-1.318926 C 2.9351991,10.739022 3.3492867,9.8482176 3.8086652,8.9785963 4.2518684,8.1424219 4.7425191,7.3408093 5.3000276,6.582678 5.3701206,6.4879115 5.4412919,6.3931452 5.5113848,6.2983786 5.6558842,6.1077309 5.8025402,5.9193129 5.9524313,5.7320098 6.5638576,4.95604 7.3488987,4.3629137 8.125313,3.773132 8.8316343,3.2368655 9.6112837,2.767493 10.414657,2.3995763 c 0.288998,-0.1349028 0.580154,-0.2608865 0.877779,-0.3790658 0.18979,-0.075813 0.390363,-0.1560858 0.589859,-0.2062563 0.483102,-0.1270985 0.965126,-0.2185202 1.462247,-0.2753801 0.337525,-0.036791 0.676127,-0.055745 1.01473,-0.055745 0.12401,0 0.2491,0.00223 0.374189,0.0078 0.594173,0.025643 1.180797,0.1025707 1.770656,0.1861881 0.02696,0.00335 0.05284,0.010034 0.07981,0.020068 0.120774,-0.068009 0.258804,-0.1092602 0.384971,-0.093652 0.598486,0.072468 1.186189,0.1806137 1.765265,0.3478485 0.453986,0.1282134 0.89719,0.287644 1.343628,0.4415001 0.885328,0.3032525 1.760951,0.6243435 2.549227,1.1528057 0.78504,0.5240027 1.563612,1.0680735 2.287187,1.6823829 0.666423,0.5619092 1.324218,1.128278 1.912999,1.780494 0.339681,0.3779508 0.677205,0.7793145 0.947872,1.2163549 0.244787,0.3913297 0.456143,0.8016125 0.640541,1.2241594 0.405462,0.9331703 0.77318,1.8930983 1.037376,2.8786703 0.257727,0.961043 0.366641,1.963337 0.401148,2.957827 z m -1.681152,0.09588 c -0.0033,-0.351193 -0.04206,-0.700157 -0.08411,-1.04689 -0.104604,-0.60985 -0.24263,-1.208551 -0.422715,-1.800562 -0.155285,-0.517311 -0.358014,-1.021246 -0.558588,-1.52295 C 26.955516,10.65206 26.798076,10.296407 26.61907,9.9519033 26.44222,9.6085143 26.244882,9.2874233 26.027053,8.9752516 25.213975,7.9350507 24.239144,7.0498207 23.223336,6.2270251 c 0.0097,0.0078 0.01941,0.015608 0.02912,0.022297 -0.01293,-0.011149 -0.02697,-0.021183 -0.04098,-0.032332 -0.04744,-0.037906 -0.09489,-0.075813 -0.142342,-0.1148347 0.03667,0.028987 0.07333,0.05909 0.109992,0.089192 C 22.400552,5.5725792 21.600414,4.9448911 20.704302,4.5223443 20.142481,4.2893304 19.568797,4.0819592 18.997269,3.8801623 18.344866,3.6504931 17.675208,3.4520411 16.992611,3.3472405 c -0.0086,-0.00112 -0.01618,-0.00223 -0.02481,-0.00335 -0.112149,-0.014493 -0.214592,-0.032332 -0.309488,-0.068009 -0.195182,0.1025708 -0.381737,0.094766 -0.599565,0.063549 -0.04744,-0.0078 -0.09382,-0.014493 -0.142341,-0.021183 -0.227533,-0.030102 -0.457223,-0.06132 -0.686912,-0.091422 -0.252335,-0.034562 -0.514374,-0.030102 -0.768866,-0.044596 -0.421636,-0.022298 -0.846506,0.025642 -1.264908,0.066894 -0.29439,0.051286 -0.596329,0.096996 -0.878858,0.1951074 -0.277133,0.095883 -0.5478,0.1973388 -0.819545,0.3077138 C 10.976479,4.0016864 10.473966,4.2737218 9.9811589,4.5780893 9.5120751,4.867963 9.0710287,5.1979732 8.635374,5.5346728 8.3463754,5.7699165 8.0509066,6.0007006 7.7985719,6.2705062 7.4977114,6.5927121 7.2162613,6.9238371 6.9423595,7.2694559 6.4689625,7.9194421 6.0268377,8.5861517 5.6418655,9.2963425 5.2471884,10.019912 4.8902534,10.760205 4.5656692,11.518336 c -0.3256627,0.850669 -0.576919,1.724749 -0.7311235,2.627818 -0.1488128,1.237538 -0.2415511,2.500719 -0.1196973,3.741602 0.073328,0.459338 0.161753,0.918676 0.2976255,1.362406 0.1272457,0.416972 0.2739018,0.826141 0.4281062,1.234194 0.2814501,0.644411 0.6373068,1.238653 1.0438459,1.810595 0.3159575,0.416973 0.6340716,0.83506 0.9694395,1.23308 0.3515431,0.416971 0.7300452,0.788233 1.1452111,1.133852 0.4464382,0.343389 0.8982682,0.683433 1.3576467,1.007869 0.2286109,0.165005 0.4626135,0.32778 0.7084779,0.466028 0.2232192,0.124868 0.4496738,0.237474 0.6793628,0.345619 0.624366,0.245278 1.257359,0.42812 1.912998,0.574173 0.648091,0.143822 1.298337,0.278724 1.955054,0.374605 1.449307,0.176154 2.913711,0.02564 4.356547,-0.160545 1.01473,-0.159431 1.989562,-0.455993 2.940669,-0.851783 0.762396,-0.367917 1.497833,-0.793809 2.18043,-1.301088 0.355857,-0.297677 0.691224,-0.60316 1.007182,-0.948778 0.290078,-0.318861 0.558588,-0.662251 0.820627,-1.008984 0.658873,-0.926482 1.212069,-1.910938 1.660663,-2.961172 0.229691,-0.595357 0.418402,-1.206322 0.598487,-1.819515 0.160675,-0.550761 0.256648,-1.116015 0.333212,-1.684614 0.04637,-0.439269 0.06578,-0.872965 0.06255,-1.312236 z m -7.644445,-3.568792 c -0.320272,-0.331125 -0.885329,-0.348964 -1.202365,0 -0.0798,0.08919 -0.149891,0.187303 -0.221062,0.285414 -0.180085,0.22075 -0.393599,0.411397 -0.585546,0.622114 -0.287921,0.315517 -0.580154,0.626573 -0.879937,0.932055 -0.337523,0.345619 -0.681519,0.68009 -1.050315,0.995605 -0.05284,0.04572 -0.105678,0.09142 -0.158518,0.137133 -0.0021,-0.215176 -0.0054,-0.430351 -0.01295,-0.645527 -0.02481,-0.720225 -0.07548,-1.441564 -0.08734,-2.161789 -0.01402,-0.780429 -0.01726,-1.561974 0,-2.3435181 0.0076,-0.4013637 0.03343,-0.8027275 0.05285,-1.2040911 0.02156,-0.4838662 0.0151,-0.9655026 0,-1.4471391 -0.0151,-0.5240026 -0.409775,-0.9621579 -0.930619,-0.9621579 -0.49173,0 -0.953265,0.4381553 -0.931698,0.9621579 0.02372,0.5318069 0.04314,1.0602691 0.03667,1.5943058 -0.0054,0.4381554 -0.02157,0.8751959 -0.03667,1.3144661 -0.03127,0.8718514 -0.04853,1.7470474 -0.02912,2.6177824 0.01941,0.825025 0.108913,1.646706 0.140185,2.471732 0.0151,0.358999 0.02372,0.722455 0.05823,1.080337 0.03451,0.351194 0.101363,0.644412 0.336446,0.917563 0.12401,0.147166 0.305173,0.248623 0.485258,0.298793 0.310566,0.0825 0.623289,-0.01337 0.889642,-0.185073 0.276058,-0.178384 0.521923,-0.435926 0.763474,-0.661136 0.182242,-0.16835 0.36664,-0.333354 0.555352,-0.49613 0.394677,-0.343389 0.773179,-0.710191 1.137663,-1.090371 0.318114,-0.333355 0.63515,-0.670055 0.953264,-1.005639 0.116461,-0.12041 0.235081,-0.243048 0.3537,-0.361228 0.156361,-0.156086 0.283607,-0.33001 0.415165,-0.507279 0.256648,-0.347848 0.258805,-0.839519 -0.05176,-1.15838 z m 0.06471,1.145001 c -0.0032,0.0056 -0.0076,0.0089 -0.01186,0.0145 -0.0021,0.0033 -0.0033,0.0067 -0.0065,0.01004 0.0065,-0.0089 0.01186,-0.01672 0.01833,-0.02452 z m -0.06471,0.09811 c 0.02048,-0.0223 0.02804,-0.05017 0.04637,-0.0747 -0.02912,0.04014 -0.05823,0.07916 -0.08734,0.118179 0.01294,-0.0156 0.02696,-0.0301 0.04098,-0.04348 z M 6.1379081,15.663532 c -0.4604568,0 -0.8443506,0.398019 -0.8443506,0.872966 0,0.476062 0.3849721,0.872966 0.8443506,0.872966 0.4593784,0 0.8443505,-0.396904 0.8443505,-0.872966 0,-0.476062 -0.3838937,-0.872966 -0.8443505,-0.872966 z m 9.5671479,8.397419 c -0.460455,0 -0.844349,0.39802 -0.844349,0.872967 0,0.474947 0.384971,0.872967 0.844349,0.872967 0.460458,0 0.844351,-0.396905 0.844351,-0.872967 0,-0.476062 -0.383893,-0.872967 -0.844351,-0.872967 z m 9.58656,-8.217921 c -0.460456,0 -0.84435,0.396905 -0.84435,0.872966 0,0.476062 0.384972,0.872966 0.84435,0.872966 0.460458,0 0.844352,-0.398019 0.844352,-0.872966 0,-0.474946 -0.384974,-0.872966 -0.844352,-0.872966 z"
   id="path45"
   style="fill:#ffffff;stroke-width:1.09647" /></svg>
